<?xml version="1.0"?>
<svg xmlns="http://www.w3.org/2000/svg" height="512px" viewBox="0 0 512 512" width="512px" class=""><g><path d="m201.144531 201.144531c0 10.097657-8.1875 18.285157-18.289062 18.285157-10.097657 0-18.285157-8.1875-18.285157-18.285157 0-10.101562 8.1875-18.289062 18.285157-18.289062 10.101562 0 18.289062 8.1875 18.289062 18.289062zm0 0" data-original="#000000" class="active-path" data-old_color="#000000" fill="#4CB648"/><path d="m283.429688 11.390625v52.609375h58.457031zm0 0" data-original="#000000" class="active-path" data-old_color="#000000" fill="#4CB648"/><path d="m371.832031 66.351562c.875.785157 1.5 1.746094 2 2.75.136719.285157.238281.558594.347657.859376.320312.859374.511718 1.738281.566406 2.652343.019531.183594.121094.347657.121094.53125v411.425781c0 5.058594-4.097657 9.144532-9.144532 9.144532h-329.140625v18.285156h356.570313v-475.429688h-54.398438zm0 0" data-original="#000000" class="active-path" data-old_color="#000000" fill="#4CB648"/><path d="m120.089844 224.839844c.457031 1.207031.953125 2.40625 1.472656 3.585937 5.011719 11.261719 4.433594 24.191407-1.242188 35.261719 6.007813-3.078125 12.554688-4.660156 19.089844-4.660156 5.523438 0 11.015625 1.125 16.175782 3.410156 1.195312.539062 2.382812 1.015625 3.589843 1.472656 11.355469 4.285156 19.96875 13.648438 23.679688 25.324219 3.714843-11.667969 12.328125-21.039063 23.699219-25.324219 1.1875-.457031 2.378906-.941406 3.566406-1.464844 11.28125-5.019531 24.203125-4.433593 35.273437 1.242188-5.679687-11.070312-6.253906-24-1.242187-35.273438.519531-1.167968 1.011718-2.367187 1.460937-3.5625 4.289063-11.375 13.660157-19.996093 25.335938-23.707031-11.675781-3.714843-21.039063-12.335937-25.328125-23.699219-.457032-1.207031-.949219-2.40625-1.46875-3.585937-5.011719-11.261719-4.4375-24.191406 1.242187-35.261719-11.070312 5.675782-24 6.253906-35.265625 1.25-1.195312-.539062-2.386718-1.011718-3.589844-1.46875-11.355468-4.289062-19.96875-13.652344-23.683593-25.328125-3.710938 11.667969-12.324219 21.039063-23.695313 25.328125-1.199218.457032-2.386718.949219-3.574218 1.460938-11.285157 5.019531-24.203126 4.425781-35.273438-1.242188 5.675781 11.070313 6.253906 24 1.242188 35.273438-.523438 1.167968-1.015626 2.367187-1.464844 3.5625-4.285156 11.375-13.65625 19.996094-25.332032 23.710937 11.675782 3.710938 21.046876 12.332031 25.332032 23.695313zm62.765625-60.269532c20.171875 0 36.574219 16.402344 36.574219 36.574219 0 20.167969-16.402344 36.570313-36.574219 36.570313-20.167969 0-36.570313-16.402344-36.570313-36.570313 0-20.171875 16.402344-36.574219 36.570313-36.574219zm0 0" data-original="#000000" class="active-path" data-old_color="#000000" fill="#4CB648"/><path d="m356.570312 82.285156h-82.285156c-5.046875 0-9.140625-4.085937-9.140625-9.140625v-73.144531h-265.144531v475.429688h356.570312zm-283.425781 111.917969c0-4.617187 3.4375-8.503906 8.007813-9.070313l3.730468-.464843c8.246094-1.035157 15.359376-6.402344 18.09375-13.667969.566407-1.527344 1.195313-3.046875 1.863282-4.546875 3.347656-7.53125 2.066406-16.539063-3.34375-23.484375l-1.882813-2.433594c-2.835937-3.640625-2.507812-8.8125.757813-12.070312l9.808594-9.800782c3.253906-3.261718 8.421874-3.582031 12.070312-.757812l2.414062 1.875c6.957032 5.410156 15.945313 6.691406 23.488282 3.355469 1.496094-.667969 3.007812-1.289063 4.542968-1.867188 7.277344-2.742187 12.644532-9.84375 13.675782-18.101562l.46875-3.722657c.566406-4.570312 4.460937-8.007812 9.070312-8.007812h13.878906c4.605469 0 8.5 3.4375 9.066407 8.007812l.46875 3.722657c1.03125 8.257812 6.398437 15.371093 13.675781 18.101562 1.546875.578125 3.054688 1.207031 4.5625 1.875 7.527344 3.320313 16.511719 2.058594 23.480469-3.355469l2.421875-1.882812c3.640625-2.824219 8.8125-2.503906 12.070312.757812l9.808594 9.800782c3.253906 3.257812 3.585938 8.429687.757812 12.070312l-1.882812 2.421875c-5.410156 6.96875-6.691406 15.964844-3.34375 23.488281.664062 1.507813 1.289062 3.027344 1.863281 4.5625 2.734375 7.257813 9.847657 12.625 18.101563 13.660157l3.722656.464843c4.570312.566407 8.007812 4.453126 8.007812 9.070313v13.878906c0 4.617188-3.4375 8.503907-8.007812 9.070313l-3.730469.464844c-8.246093 1.035156-15.359375 6.402343-18.09375 13.667968-.566406 1.527344-1.199219 3.046875-1.863281 4.546875-3.347656 7.53125-2.066406 16.539063 3.34375 23.488281l1.882812 2.429688c2.835938 3.640625 2.507813 8.816406-.757812 12.070312l-9.808594 9.800782c-3.257812 3.261718-8.429687 3.582031-12.070312.757812l-2.414063-1.875c-6.957031-5.421875-15.953125-6.699218-23.488281-3.355468-1.488281.660156-3.007812 1.289062-4.535156 1.867187-7.292969 2.742187-12.660156 9.847656-13.695313 18.101563l-.464843 3.722656c-.566407 4.570312-4.460938 8.007812-9.070313 8.007812h-13.878906c-4.609375 0-8.503907-3.4375-9.070313-8.007812l-.464844-3.722656c-1.035156-8.253907-6.402343-15.367188-13.679687-18.101563-1.542969-.578125-3.054687-1.207031-4.5625-1.875-7.53125-3.328125-16.519531-2.066406-23.476563 3.355469l-2.425781 1.882812c-3.644531 2.824219-8.8125 2.503906-12.066406-.757812l-9.8125-9.800782c-3.253906-3.253906-3.582031-8.429687-.757813-12.070312l1.882813-2.421875c5.414063-6.96875 6.695313-15.964844 3.347656-23.488281-.667969-1.507813-1.289062-3.027344-1.863281-4.5625-2.734375-7.257813-9.847656-12.625-18.105469-13.660156l-3.71875-.464844c-4.574219-.566406-8.011719-4.453125-8.011719-9.070313zm173.710938 153.226563c0 5.054687-4.09375 9.140624-9.140625 9.140624h-18.285156c-5.046876 0-9.144532-4.085937-9.144532-9.140624 0-5.058594 4.097656-9.144532 9.144532-9.144532h18.285156c5.046875 0 9.140625 4.085938 9.140625 9.144532zm-210.007813-9.144532h146.007813c5.046875 0 9.144531 4.085938 9.144531 9.144532 0 5.054687-4.097656 9.140624-9.144531 9.140624h-146.007813c-5.046875 0-9.144531-4.085937-9.144531-9.140624 0-5.058594 4.085937-9.144532 9.144531-9.144532zm109.710938 54.859375c0 5.054688-4.09375 9.140625-9.140625 9.140625h-18.285157c-5.046874 0-9.144531-4.085937-9.144531-9.140625 0-5.058593 4.097657-9.144531 9.144531-9.144531h18.285157c5.046875 0 9.140625 4.085938 9.140625 9.144531zm-109.710938-9.144531h45.710938c5.046875 0 9.144531 4.085938 9.144531 9.144531 0 5.054688-4.097656 9.140625-9.144531 9.140625h-45.710938c-5.046875 0-9.144531-4.085937-9.144531-9.140625 0-5.058593 4.085937-9.144531 9.144531-9.144531zm146.007813 64h-146.007813c-5.046875 0-9.144531-4.085938-9.144531-9.144531 0-5.054688 4.097656-9.140625 9.144531-9.140625h146.007813c5.046875 0 9.144531 4.085937 9.144531 9.140625 0 5.058593-4.097656 9.144531-9.144531 9.144531zm54.859375 0h-18.285156c-5.046876 0-9.144532-4.085938-9.144532-9.144531 0-5.054688 4.097656-9.140625 9.144532-9.140625h18.285156c5.046875 0 9.140625 4.085937 9.140625 9.140625 0 5.058593-4.09375 9.144531-9.140625 9.144531zm82.285156 0h-45.714844c-5.046875 0-9.140625-4.085938-9.140625-9.144531 0-5.054688 4.09375-9.140625 9.140625-9.140625h45.714844c5.046875 0 9.144531 4.085937 9.144531 9.140625 0 5.058593-4.097656 9.144531-9.144531 9.144531zm0-45.714844h-146.011719c-5.046875 0-9.140625-4.085937-9.140625-9.140625 0-5.058593 4.09375-9.144531 9.140625-9.144531h146.011719c5.046875 0 9.144531 4.085938 9.144531 9.144531 0 5.054688-4.097656 9.140625-9.144531 9.140625zm0-45.714844h-45.714844c-5.046875 0-9.140625-4.085937-9.140625-9.140624 0-5.058594 4.09375-9.144532 9.140625-9.144532h45.714844c5.046875 0 9.144531 4.085938 9.144531 9.144532 0 5.054687-4.097656 9.140624-9.144531 9.140624zm0 0" data-original="#000000" class="active-path" data-old_color="#000000" fill="#4CB648"/><path d="m438.855469 219.429688h73.144531v54.855468h-73.144531zm0 0" data-original="#000000" class="active-path" data-old_color="#000000" fill="#4CB648"/><path d="m438.855469 420.570312c0 5.058594 4.097656 9.144532 9.144531 9.144532v27.429687c0 5.054688 4.097656 9.140625 9.144531 9.140625h9.140625v27.429688c0 5.054687 4.097656 9.140625 9.144532 9.140625 5.046874 0 9.140624-4.085938 9.140624-9.140625v-27.429688h9.144532c5.046875 0 9.140625-4.085937 9.140625-9.140625v-27.429687c5.046875 0 9.144531-4.085938 9.144531-9.144532v-128h-73.144531zm45.714843 27.429688h-18.285156v-18.285156h18.285156zm0 0" data-original="#000000" class="active-path" data-old_color="#000000" fill="#4CB648"/><path d="m502.855469 64v-18.285156c0-15.121094-12.304688-27.429688-27.425781-27.429688-15.125 0-27.429688 12.308594-27.429688 27.429688v18.285156c-5.046875 0-9.144531 4.085938-9.144531 9.144531v128h73.144531v-128c0-5.058593-4.097656-9.144531-9.144531-9.144531zm-36.570313-18.285156c0-5.046875 4.105469-9.144532 9.144532-9.144532 5.035156 0 9.140624 4.097657 9.140624 9.144532v18.285156h-18.285156zm0 0" data-original="#000000" class="active-path" data-old_color="#000000" fill="#4CB648"/></g> </svg>
