<?xml version="1.0"?>
<svg xmlns="http://www.w3.org/2000/svg" height="512px" version="1.1" viewBox="0 0 512.00069 512" width="512px" class=""><g><g id="surface1">
<path d="M 512 256 C 512 397.386719 397.386719 512 256 512 C 114.613281 512 0 397.386719 0 256 C 0 114.617188 114.613281 0 256 0 C 397.386719 0 512 114.617188 512 256 Z M 512 256 " style="fill:#0CABB9" data-original="#0CABB9" class="" data-old_color="#0CABB9"/>
<path d="M 512 256 C 512 296.960938 502.363281 335.667969 485.257812 370 L 26.742188 370 C 9.636719 335.667969 0 296.960938 0 256 C 0 114.617188 114.613281 0 256 0 C 397.386719 0 512 114.617188 512 256 Z M 512 256 " style="fill:#016A74" data-original="#016A74" class="" data-old_color="#016A74"/>
<path d="M 350 90 C 350 95.523438 345.523438 100 340 100 L 340 350 L 290 350 L 290 100 C 284.476562 100 280 95.523438 280 90 C 280 84.476562 284.476562 80 290 80 L 340 80 C 345.523438 80 350 84.476562 350 90 Z M 419 98.335938 L 369 98.335938 C 363.476562 98.335938 359 102.8125 359 108.335938 C 359 113.855469 363.476562 118.335938 369 118.335938 L 369 368.335938 L 419 368.335938 L 419 118.335938 C 424.523438 118.335938 429 113.855469 429 108.335938 C 429 102.8125 424.523438 98.335938 419 98.335938 Z M 419 98.335938 " style="fill:#FDED32" data-original="#FDED32" class="" data-old_color="#FDED32"/>
<path d="M 330 113 L 340 113 L 340 343 L 310 343 L 310 133 C 310 121.953125 318.953125 113 330 113 Z M 340 80 L 310 80 C 304.476562 80 300 84.476562 300 90 C 300 95.523438 304.476562 100 310 100 L 340 100 C 345.523438 100 350 95.523438 350 90 C 350 84.476562 345.523438 80 340 80 Z M 389 370.335938 L 419 370.335938 L 419 130.335938 L 409 130.335938 C 397.953125 130.335938 389 139.289062 389 150.335938 Z M 419 98.335938 L 389 98.335938 C 383.476562 98.335938 379 102.8125 379 108.335938 C 379 113.855469 383.476562 118.335938 389 118.335938 L 419 118.335938 C 424.523438 118.335938 429 113.855469 429 108.335938 C 429 102.8125 424.523438 98.335938 419 98.335938 Z M 419 98.335938 " style="fill:#FDF385" data-original="#FDF385" class="" data-old_color="#FDF385"/>
<path d="M 330.59375 52.867188 C 331.753906 57.054688 331.179688 61.535156 329 65.292969 C 322.769531 76.054688 307.230469 76.054688 301 65.292969 C 298.820312 61.535156 298.246094 57.054688 299.40625 52.867188 L 313.78125 0.925781 C 314.121094 -0.308594 315.875 -0.308594 316.21875 0.925781 Z M 409.59375 71.203125 L 395.21875 19.261719 C 394.878906 18.023438 393.125 18.023438 392.78125 19.261719 L 378.40625 71.203125 C 377.246094 75.390625 377.820312 79.867188 380 83.628906 C 386.234375 94.386719 401.769531 94.386719 408.003906 83.628906 C 410.179688 79.867188 410.753906 75.390625 409.59375 71.203125 Z M 409.59375 71.203125 " style="fill:#FC9302" data-original="#FC9302" class="" data-old_color="#FC9302"/>
<path d="M 330.59375 52.867188 C 331.546875 56.304688 331.328125 59.9375 330.011719 63.210938 C 326.476562 63.105469 322.910156 61.835938 319.898438 59.195312 C 316.632812 56.328125 314.65625 52.269531 314.414062 47.929688 L 312.128906 6.890625 L 313.78125 0.925781 C 314.121094 -0.308594 315.875 -0.308594 316.21875 0.925781 Z M 409.59375 71.203125 L 395.21875 19.261719 C 394.878906 18.023438 393.125 18.023438 392.78125 19.261719 L 391.132812 25.226562 L 393.414062 66.265625 C 393.65625 70.601562 395.632812 74.660156 398.898438 77.527344 C 401.910156 80.167969 405.476562 81.4375 409.015625 81.542969 C 410.324219 78.273438 410.546875 74.640625 409.59375 71.203125 Z M 409.59375 71.203125 " style="fill:#FCB30B" data-original="#FCB30B" class="" data-old_color="#FCB30B"/>
<path d="M 211.414062 130.425781 C 211.414062 144.886719 184.503906 156.613281 151.308594 156.613281 C 118.109375 156.613281 91.199219 144.886719 91.199219 130.425781 C 91.199219 119.855469 105.585938 110.753906 126.289062 106.621094 C 127.171875 103.691406 128.644531 100.902344 130.71875 98.414062 C 133.8125 94.695312 135.800781 90.804688 136.628906 86.851562 C 141.367188 64.1875 157.507812 45.53125 179.808594 36.953125 C 185.296875 34.839844 191.527344 37.113281 193.984375 42.125 C 195.265625 44.734375 195.363281 47.765625 194.261719 50.441406 C 193.15625 53.117188 190.921875 55.257812 188.132812 56.320312 C 183.367188 58.132812 178.964844 60.621094 175.046875 63.714844 C 163.863281 72.539062 161.628906 88.230469 169.953125 99.433594 C 171.097656 100.972656 172.050781 102.652344 172.785156 104.421875 C 173.007812 104.964844 173.203125 105.515625 173.386719 106.074219 C 195.652344 109.90625 211.414062 119.363281 211.414062 130.425781 Z M 211.414062 130.425781 " style="fill:#A19A13" data-original="#A19A13" class="" data-old_color="#A19A13"/>
<path d="M 271.519531 219.976562 C 271.519531 275.21875 248.035156 320 219.0625 320 C 210.730469 320 202.851562 316.292969 195.851562 309.699219 C 189.8125 304.003906 180.011719 304.003906 173.96875 309.699219 C 166.972656 316.292969 159.09375 320 150.761719 320 C 142.425781 320 134.546875 316.292969 127.550781 309.699219 C 121.507812 304.003906 111.707031 304.003906 105.664062 309.699219 C 98.671875 316.292969 90.789062 320 82.457031 320 C 53.484375 320 30 275.21875 30 219.976562 C 30 164.734375 53.484375 119.953125 82.457031 119.953125 C 90.789062 119.953125 98.671875 123.660156 105.667969 130.253906 C 111.710938 135.949219 121.507812 135.949219 127.550781 130.253906 C 134.546875 123.660156 142.425781 119.953125 150.761719 119.953125 C 159.09375 119.953125 166.972656 123.660156 173.972656 130.253906 C 180.011719 135.949219 189.8125 135.949219 195.855469 130.253906 C 202.851562 123.660156 210.730469 119.953125 219.066406 119.953125 C 248.035156 119.953125 271.519531 164.734375 271.519531 219.976562 Z M 271.519531 219.976562 " style="fill:#E8CE00" data-original="#E8CE00" class="" data-old_color="#E8CE00"/>
<path d="M 263.171875 274.132812 C 253.835938 301.726562 237.566406 320 219.0625 320 C 210.730469 320 202.851562 316.292969 195.851562 309.699219 C 189.8125 304.003906 180.011719 304.003906 173.96875 309.699219 C 166.972656 316.292969 159.09375 320 150.761719 320 C 142.425781 320 134.546875 316.292969 127.550781 309.699219 C 121.507812 304.003906 111.707031 304.003906 105.664062 309.699219 C 98.671875 316.292969 90.789062 320 82.457031 320 C 53.484375 320 30 275.21875 30 219.976562 C 30 172.226562 47.546875 132.296875 71.019531 122.34375 C 69.914062 129.25 69.34375 136.320312 69.34375 143.519531 C 69.34375 220.164062 134.171875 282.292969 214.144531 282.292969 C 231.355469 282.296875 247.859375 279.410156 263.171875 274.132812 Z M 263.171875 274.132812 " style="fill:#D6BF01" data-original="#D6BF01" class="" data-old_color="#D6BF01"/>
<path d="M 256 266 C 363.585938 266 457.28125 284.074219 506.105469 310.78125 C 497.65625 349.523438 480.449219 384.988281 456.640625 414.992188 C 405.015625 430.457031 334.175781 440 256 440 C 177.824219 440 106.984375 430.457031 55.359375 414.992188 C 31.550781 384.988281 14.34375 349.523438 5.894531 310.78125 C 54.71875 284.074219 148.414062 266 256 266 Z M 256 266 " style="fill:#A7DDE2" data-original="#A7DDE2" class="" data-old_color="#A7DDE2"/>
<path d="M 482 353 C 482 384.25 380.816406 409.582031 256 409.582031 C 131.183594 409.582031 30 384.25 30 353 C 30 321.75 131.183594 296.421875 256 296.421875 C 380.816406 296.421875 482 321.75 482 353 Z M 482 353 " style="fill:#75CCD4" data-original="#75CCD4" class="" data-old_color="#75CCD4"/>
<path d="M 500.601562 206.855469 C 477.734375 217.707031 456.378906 231.496094 438.476562 249.394531 L 417.765625 270.109375 L 396.550781 248.894531 L 417.265625 228.183594 C 435.164062 210.28125 448.953125 188.925781 459.804688 166.058594 C 461.0625 163.40625 462.941406 160.976562 465.4375 158.976562 C 472.53125 153.304688 482.804688 153.21875 490.007812 158.75 C 493.722656 161.605469 496.089844 165.410156 497.175781 169.488281 C 501.25 170.574219 505.054688 172.9375 507.910156 176.65625 C 513.445312 183.859375 513.359375 194.128906 507.683594 201.222656 C 505.683594 203.71875 503.253906 205.597656 500.601562 206.855469 Z M 500.601562 206.855469 " style="fill:#FFF2B4" data-original="#FFF2B4" class="" data-old_color="#FFF2B4"/>
<path d="M 431.40625 242.324219 L 410.691406 263.039062 L 396.550781 248.894531 L 417.265625 228.183594 C 435.164062 210.285156 448.949219 188.929688 459.804688 166.058594 C 461.0625 163.40625 462.9375 160.976562 465.4375 158.976562 C 472.53125 153.304688 482.800781 153.214844 490.007812 158.75 C 493.722656 161.605469 496.085938 165.410156 497.175781 169.488281 C 497.195312 169.492188 497.214844 169.5 497.234375 169.503906 C 491.234375 167.894531 484.609375 169.097656 479.578125 173.121094 C 477.082031 175.117188 475.203125 177.550781 473.945312 180.203125 C 463.09375 203.070312 449.304688 224.425781 431.40625 242.324219 Z M 431.40625 242.324219 " style="fill:#FFE899" data-original="#FFE899" class="" data-old_color="#FFE899"/>
<path d="M 428.371094 294.859375 C 424.953125 298.273438 421.257812 301.179688 417.410156 303.582031 C 418.355469 314.09375 416.53125 324.800781 411.957031 334.535156 C 411.972656 335.550781 412 336.546875 412 337.578125 L 409.648438 338.941406 C 407.078125 343.402344 403.902344 347.613281 400.089844 351.429688 C 381.726562 369.789062 354.425781 373.757812 332.195312 363.34375 L 50 363.34375 C 50 208.554688 188.648438 111.351562 300.363281 187.816406 L 340.46875 215.269531 C 351.808594 223.03125 362.03125 230.832031 370.972656 239.171875 C 371.253906 238.878906 371.515625 238.578125 371.800781 238.292969 C 391.328125 218.765625 419.820312 215.601562 435.441406 231.222656 C 451.0625 246.839844 447.898438 275.332031 428.371094 294.859375 Z M 428.371094 294.859375 " style="fill:#FD8F01" data-original="#FD8F01" class="" data-old_color="#FD8F01"/>
<path d="M 443.46875 244.40625 C 427.859375 239.285156 407.851562 244.667969 393.015625 259.503906 C 392.980469 259.535156 392.949219 259.570312 392.914062 259.605469 C 386.976562 265.570312 379.363281 269.636719 371.015625 270.730469 C 358.375 272.390625 346.160156 278.074219 336.449219 287.785156 C 316.679688 307.554688 313.589844 337.6875 327.179688 360.695312 C 322.089844 357.6875 317.347656 353.867188 313.144531 349.226562 C 292.703125 326.671875 292.5625 291.832031 312.828125 269.121094 C 326.117188 254.226562 344.902344 247.613281 363.078125 249.25 C 365.480469 245.398438 368.386719 241.707031 371.804688 238.289062 C 391.328125 218.761719 419.820312 215.597656 435.441406 231.21875 C 439.195312 234.96875 441.851562 239.46875 443.46875 244.40625 Z M 50 363.339844 L 81.285156 363.339844 C 94.359375 245.152344 183.484375 165.222656 276.417969 174.203125 C 169.808594 125.328125 50 219.453125 50 363.339844 Z M 50 363.339844 " style="fill:#E27500" data-original="#E27500" class="" data-old_color="#E27500"/>
<path d="M 316.554688 453.644531 L 292.644531 459.125 C 273.222656 463.582031 258.039062 450.511719 260.207031 431.210938 C 262.207031 413.429688 278.242188 397.394531 296.023438 395.394531 C 315.324219 393.226562 328.394531 408.410156 323.9375 427.832031 L 318.457031 451.742188 C 318.246094 452.648438 317.460938 453.433594 316.554688 453.644531 Z M 316.554688 453.644531 " style="fill:#925B44" data-original="#925B44" class="" data-old_color="#925B44"/>
<path d="M 321.78125 407.765625 C 319.730469 415.105469 315.570312 422.382812 309.394531 428.558594 C 294.488281 443.464844 273.183594 446.6875 260.058594 436.617188 C 259.953125 434.878906 259.996094 433.074219 260.207031 431.210938 C 262.207031 413.429688 278.242188 397.394531 296.023438 395.394531 C 307.769531 394.074219 317.195312 399.1875 321.78125 407.765625 Z M 321.78125 407.765625 " style="fill:#A96A51" data-original="#A96A51" class="" data-old_color="#A96A51"/>
<path d="M 301.203125 395.230469 C 300.664062 397.6875 299.445312 400.027344 297.535156 401.9375 C 297.191406 402.28125 296.832031 402.605469 296.464844 402.902344 C 292.867188 405.8125 290.652344 410.023438 289.648438 414.535156 C 289.105469 416.96875 287.886719 419.285156 285.992188 421.179688 C 284.097656 423.074219 281.78125 424.292969 279.347656 424.835938 C 274.835938 425.839844 270.625 428.058594 267.714844 431.648438 C 267.417969 432.019531 267.09375 432.378906 266.75 432.722656 C 264.839844 434.632812 262.5 435.851562 260.042969 436.390625 C 259.957031 434.722656 260.007812 432.992188 260.207031 431.210938 C 262.207031 413.429688 278.242188 397.390625 296.023438 395.394531 C 297.804688 395.195312 299.535156 395.144531 301.203125 395.230469 Z M 301.203125 395.230469 " style="fill:#C58C7A" data-original="#C58C7A" class="" data-old_color="#C58C7A"/>
<path d="M 364.5 387.378906 C 358.257812 380.585938 354.984375 372.664062 355.308594 366.546875 C 350.980469 362.84375 347.222656 356.585938 345.261719 349.003906 C 341.742188 335.394531 345.359375 322.691406 353.335938 320.632812 C 356.914062 319.707031 360.761719 321.085938 364.234375 324.109375 C 364.238281 309.585938 369.753906 298.019531 379.035156 295.621094 C 384.863281 294.113281 391.144531 296.488281 396.757812 301.605469 C 396.941406 299.890625 397.1875 298.160156 397.511719 296.410156 C 401.542969 274.6875 415.136719 258.996094 427.867188 261.363281 C 434.601562 262.613281 439.746094 268.664062 442.503906 277.300781 C 443.613281 275.289062 444.871094 273.304688 446.296875 271.375 C 459.421875 253.605469 480.867188 247.183594 494.195312 257.027344 C 507.519531 266.871094 507.683594 289.257812 494.558594 307.027344 C 488.855469 314.746094 481.585938 320.316406 474.089844 323.351562 C 483.050781 329.023438 488.25 336.683594 487.113281 344.261719 C 485.191406 357.070312 465.925781 364.800781 444.078125 361.523438 C 443.578125 361.449219 443.082031 361.363281 442.585938 361.277344 C 448.023438 369.289062 449.660156 377.59375 446.128906 383.847656 C 439.757812 395.125 419 395.453125 399.769531 384.585938 C 397.734375 383.4375 395.808594 382.207031 393.984375 380.917969 C 395.992188 387.035156 395.480469 392.636719 392.03125 395.808594 C 386.113281 401.25 373.785156 397.476562 364.5 387.378906 Z M 364.5 387.378906 " style="fill:#ECB700" data-original="#ECB700" class="" data-old_color="#ECB700"/>
<path d="M 497.269531 259.773438 C 465.605469 310.578125 416.222656 350.347656 355.363281 369.027344 C 355.285156 368.175781 355.265625 367.34375 355.304688 366.546875 C 350.980469 362.84375 347.21875 356.585938 345.261719 349.003906 C 341.742188 335.394531 345.359375 322.691406 353.335938 320.628906 C 356.914062 319.707031 360.761719 321.085938 364.234375 324.109375 C 364.234375 309.585938 369.753906 298.019531 379.035156 295.621094 C 384.863281 294.113281 391.144531 296.488281 396.757812 301.605469 C 396.941406 299.890625 397.183594 298.15625 397.511719 296.40625 C 401.542969 274.6875 415.136719 258.996094 427.867188 261.359375 C 434.601562 262.609375 439.746094 268.664062 442.503906 277.300781 C 443.613281 275.285156 444.871094 273.300781 446.296875 271.375 C 459.421875 253.605469 480.867188 247.179688 494.191406 257.027344 C 495.316406 257.855469 496.335938 258.777344 497.269531 259.773438 Z M 497.269531 259.773438 " style="fill:#F5C02C" data-original="#F5C02C" class="" data-old_color="#F5C02C"/>
<path d="M 471.78125 301.359375 C 433.574219 347.703125 380.050781 377.140625 322.792969 381.351562 C 317.449219 381.746094 312.492188 378.042969 311.789062 372.734375 C 311.027344 366.964844 315.277344 361.839844 320.988281 361.429688 C 372.898438 357.714844 421.527344 330.886719 456.371094 288.589844 C 460.871094 283.125 469.511719 284.046875 472.855469 290.285156 C 474.769531 293.855469 474.355469 298.238281 471.78125 301.359375 Z M 471.78125 301.359375 " style="fill:#CD9E00" data-original="#CD9E00" class="" data-old_color="#CD9E00"/>
<path d="M 101 370.082031 C 98.152344 366.359375 98.621094 360.757812 101.65625 355.078125 C 99.636719 356.03125 97.523438 356.910156 95.324219 357.6875 C 74.5 365.0625 54.113281 361.144531 49.789062 348.9375 C 47.394531 342.167969 50.445312 334.273438 57.1875 327.324219 C 56.683594 327.320312 56.179688 327.320312 55.675781 327.304688 C 33.589844 326.75 15.949219 315.804688 16.277344 302.859375 C 16.46875 295.195312 22.914062 288.550781 32.71875 284.515625 C 25.863281 280.230469 19.667969 273.484375 15.386719 264.894531 C 5.535156 245.121094 9.570312 223.101562 24.398438 215.714844 C 39.226562 208.324219 59.238281 218.363281 69.089844 238.136719 C 70.160156 240.28125 71.054688 242.453125 71.800781 244.628906 C 76.011719 236.597656 82.125 231.527344 88.972656 231.460938 C 101.921875 231.335938 112.59375 249.144531 112.808594 271.234375 C 112.824219 273.015625 112.765625 274.765625 112.648438 276.484375 C 119.0625 272.417969 125.660156 271.164062 131.140625 273.65625 C 139.867188 277.625 143.300781 289.972656 140.785156 304.277344 C 144.730469 301.898438 148.757812 301.207031 152.121094 302.738281 C 159.621094 306.148438 160.984375 319.289062 155.164062 332.082031 C 151.921875 339.207031 147.136719 344.71875 142.234375 347.621094 C 141.496094 353.699219 136.902344 360.933594 129.574219 366.542969 C 118.683594 374.882812 105.890625 376.464844 101 370.082031 Z M 101 370.082031 " style="fill:#D00041" data-original="#D00041" class="" data-old_color="#D00041"/>
<path d="M 24.402344 215.714844 C 39.230469 208.324219 59.238281 218.363281 69.09375 238.136719 C 70.160156 240.28125 71.054688 242.453125 71.800781 244.628906 C 76.011719 236.601562 82.125 231.53125 88.976562 231.464844 C 101.925781 231.339844 112.597656 249.144531 112.808594 271.234375 C 112.824219 273.015625 112.769531 274.765625 112.652344 276.484375 C 119.0625 272.417969 125.660156 271.164062 131.140625 273.65625 C 139.867188 277.628906 143.300781 289.976562 140.789062 304.277344 C 144.734375 301.898438 148.761719 301.207031 152.125 302.738281 C 159.625 306.152344 160.988281 319.289062 155.167969 332.082031 C 151.925781 339.207031 147.136719 344.722656 142.238281 347.621094 C 142.140625 348.414062 141.976562 349.226562 141.75 350.050781 C 85.042969 321.121094 43.289062 273.40625 20.898438 217.886719 C 21.988281 217.066406 23.152344 216.335938 24.402344 215.714844 Z M 24.402344 215.714844 " style="fill:#E30048" data-original="#E30048" class="" data-old_color="#E30048"/>
<path d="M 39.660156 252.164062 C 44.035156 246.597656 52.703125 247.183594 56.191406 253.347656 C 83.1875 301.039062 126.441406 335.875 176.921875 348.519531 C 182.480469 349.910156 185.773438 355.695312 184.023438 361.246094 C 182.414062 366.351562 176.890625 369.140625 171.699219 367.828125 C 116.03125 353.769531 68.414062 315.511719 38.804688 263.257812 C 36.808594 259.734375 37.160156 255.347656 39.660156 252.164062 Z M 39.660156 252.164062 " style="fill:#BC003B" data-original="#BC003B" class="" data-old_color="#BC003B"/>
<path d="M 155.847656 205.265625 L 155.847656 175.617188 C 169.351562 169.125 183.574219 164.691406 198.171875 162.582031 C 198.175781 162.699219 198.1875 162.8125 198.1875 162.929688 C 198.1875 162.808594 198.203125 162.695312 198.207031 162.578125 C 205.132812 161.578125 212.144531 161.101562 219.199219 161.175781 C 219.296875 161.746094 219.359375 162.332031 219.359375 162.929688 L 219.359375 161.175781 C 233.394531 161.335938 247.605469 163.671875 261.695312 168.386719 L 261.695312 194.683594 C 261.695312 200.527344 256.957031 205.265625 251.113281 205.265625 C 245.265625 205.265625 240.527344 200.527344 240.527344 194.683594 C 240.527344 188.835938 235.789062 184.097656 229.941406 184.097656 C 224.097656 184.097656 219.355469 188.835938 219.355469 194.683594 L 219.355469 237.019531 C 219.355469 242.867188 214.617188 247.605469 208.773438 247.605469 C 202.925781 247.605469 198.1875 242.867188 198.1875 237.019531 L 198.1875 205.265625 C 198.1875 199.421875 193.449219 194.683594 187.601562 194.683594 C 181.757812 194.683594 177.015625 199.421875 177.015625 205.265625 C 177.015625 211.113281 172.277344 215.851562 166.433594 215.851562 C 160.585938 215.851562 155.847656 211.113281 155.847656 205.265625 Z M 155.847656 205.265625 " style="fill:#E30048" data-original="#E30048" class="" data-old_color="#E30048"/>
<path d="M 320 359 C 320 364.203125 319.261719 369.230469 317.910156 374 L 42.089844 374 C 40.738281 369.230469 40 364.203125 40 359 C 40 328.625 64.625 304 95 304 C 112.121094 304 127.414062 311.824219 137.5 324.089844 C 147.585938 311.824219 162.878906 304 180 304 C 197.121094 304 212.414062 311.824219 222.5 324.089844 C 232.585938 311.824219 247.878906 304 265 304 C 295.375 304 320 328.625 320 359 Z M 320 359 " style="fill:#E8CE00" data-original="#E8CE00" class="" data-old_color="#E8CE00"/>
<path d="M 222.492188 324.101562 C 214.6875 333.597656 210 345.75 210 359 C 210 364.203125 210.738281 369.230469 212.089844 374 L 62.089844 374 C 60.738281 369.230469 60 364.203125 60 359 C 60 332.042969 79.402344 309.628906 105 304.925781 C 125.171875 308.632812 141.484375 323.335938 147.5 342.589844 C 153.515625 323.335938 169.828125 308.632812 190 304.925781 C 203.011719 307.316406 214.414062 314.289062 222.492188 324.101562 Z M 275 304.925781 C 249.402344 309.628906 230 332.042969 230 359 C 230 364.203125 230.738281 369.230469 232.089844 374 L 317.910156 374 C 319.261719 369.230469 320 364.203125 320 359 C 320 332.042969 300.597656 309.628906 275 304.925781 Z M 275 304.925781 " style="fill:#FDF061" data-original="#FDF061" class="" data-old_color="#FDF061"/>
<path d="M 170 354 C 170 370.566406 156.570312 384 140 384 C 135.636719 384 131.496094 383.0625 127.757812 381.386719 C 123.273438 392.308594 112.535156 400 100 400 C 87.464844 400 76.726562 392.308594 72.242188 381.386719 C 68.503906 383.0625 64.363281 384 60 384 C 43.433594 384 30 370.566406 30 354 C 30 337.429688 43.433594 324 60 324 C 72.535156 324 83.273438 331.691406 87.757812 342.613281 C 91.496094 340.9375 95.636719 340 100 340 C 104.363281 340 108.503906 340.9375 112.242188 342.613281 C 116.726562 331.691406 127.464844 324 140 324 C 156.570312 324 170 337.429688 170 354 Z M 170 354 " style="fill:#FCB30B" data-original="#FCB30B" class="" data-old_color="#FCB30B"/>
<path d="M 160 354 C 160 342.953125 151.046875 334 140 334 C 139.15625 334 138.332031 334.070312 137.519531 334.171875 C 140.863281 330.382812 145.136719 327.433594 150 325.714844 C 146.871094 324.609375 143.507812 324 140 324 C 127.464844 324 116.726562 331.691406 112.242188 342.613281 C 122.707031 347.296875 130 357.792969 130 370 C 130 374.03125 129.199219 377.875 127.757812 381.386719 C 131.496094 383.0625 135.636719 384 140 384 C 143.507812 384 146.871094 383.394531 150 382.285156 C 145.136719 380.566406 140.863281 377.617188 137.519531 373.832031 C 138.332031 373.929688 139.15625 374 140 374 C 151.046875 374 160 365.046875 160 354 Z M 130 354 C 130 348.476562 134.476562 344 140 344 C 145.523438 344 150 348.476562 150 354 C 150 359.523438 145.523438 364 140 364 C 134.476562 364 130 359.523438 130 354 Z M 100 350 C 99.15625 350 98.332031 350.070312 97.519531 350.171875 C 100.863281 346.382812 105.136719 343.433594 110 341.714844 C 106.871094 340.609375 103.507812 340 100 340 C 91.917969 340 84.585938 343.203125 79.191406 348.402344 C 76.769531 340.085938 69.101562 334 60 334 C 59.15625 334 58.332031 334.070312 57.519531 334.171875 C 60.863281 330.382812 65.136719 327.433594 70 325.714844 C 66.871094 324.609375 63.507812 324 60 324 C 43.429688 324 30 337.433594 30 354 C 30 370.566406 43.429688 384 60 384 C 63.507812 384 66.871094 383.394531 70 382.285156 C 65.136719 380.566406 60.863281 377.617188 57.519531 373.832031 C 58.332031 373.929688 59.15625 374 60 374 C 63.660156 374 67.082031 373 70.03125 371.285156 C 70.703125 387.253906 83.863281 400 100 400 C 103.507812 400 106.871094 399.394531 110 398.285156 C 105.136719 396.566406 100.863281 393.617188 97.519531 389.832031 C 98.332031 389.929688 99.15625 390 100 390 C 111.046875 390 120 381.046875 120 370 C 120 358.953125 111.046875 350 100 350 Z M 60 364 C 54.476562 364 50 359.523438 50 354 C 50 348.476562 54.476562 344 60 344 C 65.523438 344 70 348.476562 70 354 C 70 359.523438 65.523438 364 60 364 Z M 100 380 C 94.476562 380 90 375.523438 90 370 C 90 364.476562 94.476562 360 100 360 C 105.523438 360 110 364.476562 110 370 C 110 375.523438 105.523438 380 100 380 Z M 100 380 " style="fill:#FC9302" data-original="#FC9302" class="" data-old_color="#FC9302"/>
<path d="M 338.460938 328.167969 C 339.792969 329.5 338.421875 333.035156 335.394531 336.0625 C 333.089844 338.371094 330.488281 339.710938 328.789062 339.628906 C 327.09375 339.710938 324.492188 338.371094 322.1875 336.0625 C 319.160156 333.035156 317.789062 329.5 319.121094 328.167969 C 320.25 327.039062 322.945312 327.847656 325.578125 329.945312 C 325.910156 326.453125 327.277344 323.832031 328.914062 323.832031 C 330.527344 323.832031 331.871094 326.363281 332.234375 329.761719 C 334.792969 327.796875 337.367188 327.074219 338.460938 328.167969 Z M 288.371094 340.410156 C 286.824219 340.410156 285.519531 342.742188 285.101562 345.941406 C 282.441406 343.792969 279.699219 342.957031 278.5625 344.09375 C 277.402344 345.253906 278.289062 348.074219 280.523438 350.777344 C 277.175781 351.15625 274.699219 352.488281 274.699219 354.082031 C 274.699219 355.96875 278.171875 357.5 282.449219 357.5 C 285.714844 357.5 288.5 356.609375 289.640625 355.351562 C 290.898438 354.207031 291.789062 351.421875 291.789062 348.160156 C 291.789062 343.878906 290.261719 340.410156 288.371094 340.410156 Z M 354.179688 364.367188 C 356.414062 361.664062 357.296875 358.84375 356.140625 357.683594 C 355 356.546875 352.261719 357.382812 349.601562 359.53125 C 349.179688 356.332031 347.875 354 346.328125 354 C 344.441406 354 342.910156 357.46875 342.910156 361.75 C 342.910156 365.011719 343.800781 367.796875 345.058594 368.941406 C 346.203125 370.199219 348.988281 371.089844 352.25 371.089844 C 356.527344 371.089844 360 369.558594 360 367.671875 C 360 366.078125 357.523438 364.746094 354.179688 364.367188 Z M 161.789062 357.75 C 161.789062 353.46875 160.261719 350 158.371094 350 C 156.824219 350 155.519531 352.332031 155.101562 355.53125 C 152.441406 353.382812 149.699219 352.546875 148.5625 353.683594 C 147.402344 354.84375 148.289062 357.664062 150.523438 360.367188 C 147.175781 360.746094 144.699219 362.078125 144.699219 363.671875 C 144.699219 365.558594 148.171875 367.089844 152.449219 367.089844 C 155.714844 367.089844 158.5 366.199219 159.640625 364.941406 C 160.902344 363.796875 161.789062 361.011719 161.789062 357.75 Z M 169.476562 460.367188 C 171.710938 457.664062 172.597656 454.84375 171.4375 453.683594 C 170.300781 452.546875 167.558594 453.382812 164.898438 455.53125 C 164.480469 452.332031 163.175781 450 161.628906 450 C 159.738281 450 158.210938 453.46875 158.210938 457.75 C 158.210938 461.011719 159.101562 463.796875 160.355469 464.941406 C 161.5 466.199219 164.285156 467.089844 167.546875 467.089844 C 171.828125 467.089844 175.296875 465.558594 175.296875 463.671875 C 175.300781 462.078125 172.820312 460.746094 169.476562 460.367188 Z M 169.476562 460.367188 " style="fill:#53714C" data-original="#53714C" class="" data-old_color="#56FF00"/>
<path d="M 349.597656 390.976562 C 341.785156 398.789062 327.710938 400.203125 319.898438 392.390625 C 316.3125 388.804688 314.691406 383.890625 314.722656 378.871094 C 306.898438 386.597656 292.890625 385.171875 285.101562 377.386719 C 277.292969 369.578125 278.707031 358.328125 286.515625 350.515625 C 293.476562 343.554688 303.164062 341.695312 310.71875 346.898438 C 313.027344 338.863281 320.773438 334 330 334 C 341.046875 334 350 340.953125 350 352 C 350 355.84375 348.914062 359.679688 347.03125 363.042969 C 347.421875 363.386719 347.808594 363.730469 348.183594 364.105469 C 355.996094 371.917969 357.410156 383.167969 349.597656 390.976562 Z M 156.515625 360.105469 C 148.707031 367.917969 147.292969 379.167969 155.101562 386.976562 C 162.914062 394.789062 176.992188 396.203125 184.800781 388.390625 C 192.613281 380.582031 191.195312 366.503906 183.386719 358.691406 C 175.578125 350.882812 164.328125 352.296875 156.515625 360.105469 Z M 136.613281 458.691406 C 128.800781 466.503906 127.386719 480.582031 135.199219 488.390625 C 143.011719 496.203125 157.085938 494.789062 164.898438 486.976562 C 172.707031 479.167969 171.292969 467.917969 163.484375 460.105469 C 155.671875 452.296875 144.421875 450.882812 136.613281 458.691406 Z M 136.613281 458.691406 " style="fill:#A90033" data-original="#A90033" class="active-path" data-old_color="#A90033"/>
<path d="M 318.746094 357.867188 C 317.890625 360.164062 316.589844 362.28125 314.800781 364.070312 C 306.992188 371.882812 292.914062 370.464844 285.105469 362.65625 C 283.570312 361.121094 282.402344 359.453125 281.558594 357.707031 C 282.683594 355.144531 284.339844 352.695312 286.519531 350.515625 C 294.328125 342.707031 305.578125 341.292969 313.386719 349.101562 C 315.824219 351.542969 317.640625 354.589844 318.746094 357.867188 Z M 348.183594 364.105469 C 347.597656 363.523438 346.988281 362.984375 346.367188 362.472656 C 346.78125 362.316406 347.191406 362.167969 347.59375 361.984375 C 349.128906 358.886719 350 355.449219 350 352 C 350 340.953125 341.046875 334 330 334 C 326.921875 334 324.015625 334.558594 321.410156 335.578125 C 320.773438 337.410156 320.417969 339.414062 320.417969 341.582031 C 320.417969 347.917969 323.363281 354.21875 327.960938 358.441406 C 325.59375 359.277344 323.339844 360.667969 321.3125 362.691406 C 318.875 365.132812 317.0625 368.179688 315.957031 371.457031 C 316.8125 373.753906 318.109375 375.871094 319.898438 377.660156 C 327.710938 385.472656 341.789062 384.054688 349.597656 376.246094 C 351.132812 374.710938 352.296875 373.042969 353.140625 371.296875 C 352.019531 368.734375 350.359375 366.285156 348.183594 364.105469 Z M 156.515625 360.105469 C 154.339844 362.285156 152.679688 364.730469 151.558594 367.296875 C 152.402344 369.042969 153.570312 370.710938 155.101562 372.246094 C 162.914062 380.058594 176.992188 381.472656 184.800781 373.660156 C 186.589844 371.871094 187.890625 369.753906 188.742188 367.457031 C 187.636719 364.179688 185.824219 361.132812 183.386719 358.691406 C 175.578125 350.882812 164.328125 352.296875 156.515625 360.105469 Z M 136.613281 458.691406 C 134.175781 461.132812 132.359375 464.179688 131.257812 467.457031 C 132.109375 469.753906 133.410156 471.871094 135.199219 473.660156 C 143.007812 481.472656 157.085938 480.054688 164.898438 472.246094 C 166.429688 470.710938 167.597656 469.042969 168.441406 467.296875 C 167.320312 464.734375 165.660156 462.285156 163.484375 460.105469 C 155.671875 452.296875 144.421875 450.882812 136.613281 458.691406 Z M 136.613281 458.691406 " style="fill:#D00041" data-original="#D00041" class="" data-old_color="#D00041"/>
</g></g> </svg>
