<?xml version="1.0"?>
<svg xmlns="http://www.w3.org/2000/svg" height="512px" viewBox="-9 0 512 512" width="512px"><g><path d="m485.515625 88.277344h-35.308594v-35.3125c0-9.753906 7.902344-17.65625 17.65625-17.65625 9.753907 0 17.652344 7.902344 17.652344 17.65625zm0 0" fill="#556080" data-original="#556080"/><path d="m467.863281 494.34375c-4.875 0-8.828125-3.945312-8.828125-8.828125v-35.308594c0-4.882812 3.953125-8.828125 8.828125-8.828125 4.871094 0 8.828125 3.945313 8.828125 8.828125v35.308594c0 4.882813-3.957031 8.828125-8.828125 8.828125zm0 0" fill="#e7eced" data-original="#E7ECED"/><path d="m450.207031 388.414062h35.308594v61.792969h-35.308594zm0 0" fill="#556080" data-original="#556080"/><path d="m312.886719 35.308594 4.90625 52.96875-70.621094 256-211.863281 132.414062v35.308594h361.933594v-476.691406zm0 0" fill="#8a949b" data-original="#8A949B"/><path d="m345.292969 74.566406c-13.324219-5.789062-23.519531-16.320312-35.859375-23.726562-8.703125-5.21875-7.910156-15.210938-2.796875-21.160156l-32.980469-29.679688h-273.65625v476.691406h361.929688v-397.242187l-4.589844-4.132813c-3.75 1.324219-8.085938.980469-12.046875-.75zm0 0" fill="#e7eced" data-original="#E7ECED"/><path d="m273.65625 0v79.449219h88.273438zm0 0" fill="#afb6bb" data-original="#AFB6BB"/><path d="m282.484375 209.734375v-13.390625l-3.601563-.449219c-11.019531-1.378906-20.730468-8.457031-24.648437-18.847656-.496094-1.324219-1.03125-2.632813-1.605469-3.921875-4.644531-10.441406-2.683594-22.660156 4.332032-31.671875l1.820312-2.332031-9.472656-9.46875-2.332032 1.816406c-9.019531 7.019531-21.238281 8.976562-31.671874 4.335938-1.296876-.574219-2.605469-1.113282-3.917969-1.609376-10.390625-3.910156-17.472657-13.628906-18.847657-24.644531l-.460937-3.621093h-13.390625l-.449219 3.601562c-1.378906 11.019531-8.457031 20.730469-18.847656 24.648438-1.324219.492187-2.628906 1.03125-3.917969 1.605468-10.445312 4.644532-22.660156 2.683594-31.675781-4.332031l-2.328125-1.820313-9.472656 9.472657 1.816406 2.332031c7.019531 9.019531 8.96875 21.238281 4.335938 31.671875-.574219 1.296875-1.113282 2.605469-1.605469 3.917969-3.910157 10.390625-13.632813 17.472656-24.648438 18.847656l-3.617187.460938v13.390624l3.601562.449219c11.015625 1.378907 20.726563 8.457031 24.644532 18.847657.496093 1.324218 1.035156 2.628906 1.605468 3.917968 4.644532 10.445313 2.683594 22.660156-4.332031 31.675782l-1.820313 2.328124 9.472657 9.472657 2.332031-1.816407c9.019531-7.019531 21.238281-8.980468 31.671875-4.335937 1.296875.574219 2.605469 1.113281 3.921875 1.605469 10.386719 3.910156 17.46875 13.628906 18.84375 24.648437l.460938 3.617188h13.390624l.449219-3.601563c1.378907-11.015625 8.457031-20.726562 18.847657-24.644531 1.324218-.496094 2.632812-1.035156 3.921874-1.609375 10.441407-4.640625 22.660157-2.683594 31.671876 4.335938l2.332031 1.820312 9.46875-9.472656-1.816407-2.332032c-7.019531-9.019531-8.96875-21.238281-4.335937-31.671874.574219-1.296876 1.113281-2.605469 1.609375-3.921876 3.910156-10.386718 13.628906-17.46875 24.644531-18.84375zm0 0" fill="#afb6bb" data-original="#AFB6BB"/><path d="m211.863281 203.035156c0 14.625-11.859375 26.480469-26.484375 26.480469s-26.480468-11.855469-26.480468-26.480469 11.855468-26.484375 26.480468-26.484375 26.484375 11.859375 26.484375 26.484375zm0 0" fill="#fff" data-original="#FFF"/><path d="m185.378906 353.101562h-140.976562c-4.871094 0-8.828125-3.945312-8.828125-8.824218 0-4.882813 3.957031-8.828125 8.828125-8.828125h140.976562c4.875 0 8.828125 3.945312 8.828125 8.828125 0 4.878906-3.953125 8.824218-8.828125 8.824218zm0 0" fill="#366db6" data-original="#366DB6"/><path d="m317.792969 353.101562h-44.136719c-4.875 0-8.828125-3.945312-8.828125-8.824218 0-4.882813 3.953125-8.828125 8.828125-8.828125h44.136719c4.871093 0 8.828125 3.945312 8.828125 8.828125 0 4.878906-3.957032 8.824218-8.828125 8.824218zm0 0" fill="#dd352e" data-original="#DD352E"/><path d="m238.34375 353.101562h-17.652344c-4.875 0-8.828125-3.945312-8.828125-8.824218 0-4.882813 3.953125-8.828125 8.828125-8.828125h17.652344c4.875 0 8.828125 3.945312 8.828125 8.828125 0 4.878906-3.953125 8.824218-8.828125 8.824218zm0 0" fill="#ebba16" data-original="#EBBA16"/><path d="m185.378906 441.378906h-140.976562c-4.871094 0-8.828125-3.945312-8.828125-8.828125 0-4.878906 3.957031-8.828125 8.828125-8.828125h140.976562c4.875 0 8.828125 3.949219 8.828125 8.828125 0 4.882813-3.953125 8.828125-8.828125 8.828125zm0 0" fill="#cb465f" data-original="#CB465F"/><path d="m317.792969 441.378906h-44.136719c-4.875 0-8.828125-3.945312-8.828125-8.828125 0-4.878906 3.953125-8.828125 8.828125-8.828125h44.136719c4.871093 0 8.828125 3.949219 8.828125 8.828125 0 4.882813-3.957032 8.828125-8.828125 8.828125zm0 0" fill="#75348b" data-original="#75348B"/><path d="m238.34375 441.378906h-17.652344c-4.875 0-8.828125-3.945312-8.828125-8.828125 0-4.878906 3.953125-8.828125 8.828125-8.828125h17.652344c4.875 0 8.828125 3.949219 8.828125 8.828125 0 4.882813-3.953125 8.828125-8.828125 8.828125zm0 0" fill="#366db6" data-original="#366DB6"/><path d="m317.792969 397.242188h-140.976563c-4.871094 0-8.828125-3.945313-8.828125-8.828126 0-4.882812 3.957031-8.828124 8.828125-8.828124h140.976563c4.871093 0 8.828125 3.945312 8.828125 8.828124 0 4.882813-3.957032 8.828126-8.828125 8.828126zm0 0" fill="#61b872" data-original="#61B872"/><path d="m88.539062 397.242188h-44.136718c-4.871094 0-8.828125-3.945313-8.828125-8.828126 0-4.882812 3.957031-8.828124 8.828125-8.828124h44.136718c4.875 0 8.828126 3.945312 8.828126 8.828124 0 4.882813-3.953126 8.828126-8.828126 8.828126zm0 0" fill="#75348b" data-original="#75348B"/><path d="m141.507812 397.242188h-17.65625c-4.875 0-8.828124-3.945313-8.828124-8.828126 0-4.882812 3.953124-8.828124 8.828124-8.828124h17.65625c4.871094 0 8.824219 3.945312 8.824219 8.828124 0 4.882813-3.953125 8.828126-8.824219 8.828126zm0 0" fill="#dc691d" data-original="#DC691D"/><path d="m441.378906 79.449219h52.964844v335.449219h-52.964844zm0 0" fill="#7383bf" data-original="#7383BF"/><path d="m441.378906 211.863281h52.964844v70.621094h-52.964844zm0 0" fill="#556080" data-original="#556080"/></g> </svg>
