<?xml version="1.0"?>
<svg xmlns="http://www.w3.org/2000/svg" viewBox="0 0 511 512" width="512px" height="512px" class=""><g><path d="m425.289062 396.921875-102.496093-38.023437h-132.589844l-102.492187 38.023437c-28.773438 10.671875-42.960938 43.078125-31.289063 71.460937 11.117187 27.035157 41.664063 40.394532 69.058594 30.199219l127.855469-47.570312 3.164062-9.136719 3.164062 9.136719 127.855469 47.570312c27.394531 10.195313 57.941407-3.164062 69.058594-30.199219 11.671875-28.382812-2.515625-60.789062-31.289063-71.460937zm0 0" fill="#72d8ff" data-original="#72D8FF" class="" style="fill:#72D8FF" data-old_color="#4CB648"/><path d="m396.574219 224.742188-50.308594-49.265626c-10.6875-10.464843-25.054687-16.328124-40.015625-16.328124h-99.546875c-14.960937 0-29.324219 5.863281-40.015625 16.328124l-50.304688 49.265626c-21.421874 20.976562-20.289062 55.800781 2.457032 75.339843 18.210937 15.644531 44.851562 16.519531 64.046875 2.101563l7.277343-5.46875-.003906.003906v62.179688h132.632813v-62.179688l-.003907-.003906 7.277344 5.46875c19.195313 14.417968 45.835938 13.546875 64.046875-2.097656 22.746094-19.539063 23.882813-54.363282 2.460938-75.34375zm0 0" fill="#fcb8e7" data-original="#FCB8E7" class="" style="fill:#FCB8E7" data-old_color="#4CB648"/><path d="m256.5 159.148438c-29.246094 0-52.953125-23.707032-52.953125-52.953126v-8.921874c0-29.246094 23.707031-52.953126 52.953125-52.953126s52.953125 23.707032 52.953125 52.953126v8.921874c0 29.246094-23.710937 52.953126-52.953125 52.953126zm0 0" fill="#feda9b" data-original="#FEDA9B" class="" style="fill:#FEDA9B"/><path d="m226.242188 48.757812v-8.5c0-16.710937 13.546874-30.257812 30.257812-30.257812s30.257812 13.546875 30.257812 30.257812v8.5" fill="#ffb954" data-original="#FFB954" style="fill:#FFB954"/><path d="m123.230469 447.878906c2.628906 0 5.207031-1.070312 7.070312-2.929687 1.867188-1.859375 2.929688-4.4375 2.929688-7.070313 0-2.628906-1.0625-5.207031-2.929688-7.070312-1.863281-1.859375-4.441406-2.929688-7.070312-2.929688-2.632813 0-5.210938 1.070313-7.070313 2.929688-1.859375 1.863281-2.929687 4.441406-2.929687 7.070312 0 2.632813 1.070312 5.210938 2.929687 7.070313s4.4375 2.929687 7.070313 2.929687zm0 0" data-original="#000000" class="active-path" style="fill:#000000"/><path d="m502.46875 492h-49.402344c5.28125-5.597656 9.648438-12.246094 12.761719-19.8125 6.6875-16.261719 6.484375-34.082031-.566406-50.1875-7.050781-16.101562-20.011719-28.339844-36.496094-34.453125l-95.96875-35.605469v-36.304687c8.628906 4.433593 18.257813 6.796875 28.011719 6.796875.660156 0 1.320312-.011719 1.980468-.03125 13.875-.457032 27.3125-5.6875 37.84375-14.734375 12.960938-11.132813 20.714844-27.3125 21.269532-44.390625.558594-17.078125-6.125-33.726563-18.332032-45.679688l-50.304687-49.265625c-12.636719-12.371093-29.332031-19.183593-47.011719-19.183593h-3.792968c10.527343-11.257813 16.992187-26.359376 16.992187-42.953126v-8.921874c0-19.417969-8.84375-36.804688-22.707031-48.363282.003906-.050781.011718-.101562.011718-.15625v-8.5c0-22.195312-18.0625-40.253906-40.257812-40.253906s-40.257812 18.058594-40.257812 40.257812v8.5c0 .050782.007812.101563.011718.152344-13.863281 11.558594-22.707031 28.945313-22.707031 48.363282v8.921874c0 16.59375 6.464844 31.695313 16.992187 42.953126h-3.835937c-17.679687 0-34.378906 6.8125-47.011719 19.1875l-50.304687 49.261718c-12.207031 11.953125-18.890625 28.605469-18.332031 45.679688.554687 17.078125 8.308593 33.257812 21.269531 44.394531 10.53125 9.042969 23.96875 14.273437 37.84375 14.730469.660156.019531 1.320312.03125 1.980469.03125 9.75 0 19.382812-2.363282 28.011718-6.796875v36.320312l-95.925781 35.589844c-16.484375 6.113281-29.445313 18.347656-36.496094 34.453125s-7.253906 33.929688-.566406 50.1875c3.109375 7.566406 7.480469 14.214844 12.761719 19.8125h-49.433594c-5.523438 0-10 4.476562-10 10s4.476562 10 10 10h491.972656c5.519532 0 10-4.476562 10-10s-4.480468-10-10.003906-10zm-302.308594-143.101562v-47.183594l50.867188-38.207032c2.007812-1.507812 3.824218-3.171874 5.449218-4.960937 1.628907 1.789063 3.445313 3.453125 5.453126 4.960937l50.863281 38.207032v47.183594zm56.339844-328.898438c10.273438 0 18.765625 7.695312 20.0625 17.617188-6.304688-2.125-13.046875-3.296876-20.0625-3.296876s-13.757812 1.171876-20.0625 3.296876c1.296875-9.921876 9.789062-17.617188 20.0625-17.617188zm-42.953125 77.273438c0-23.683594 19.269531-42.953126 42.953125-42.953126s42.953125 19.269532 42.953125 42.953126v8.921874c0 23.6875-19.269531 42.953126-42.953125 42.953126s-42.953125-19.265626-42.953125-42.953126zm-88.191406 195.226562c-8.847657-7.605469-13.933594-18.214844-14.3125-29.871094-.378907-11.664062 4.003906-22.578125 12.339843-30.742187l50.304688-49.265625c8.871094-8.6875 20.597656-13.472656 33.019531-13.472656h99.546875c12.417969 0 24.144532 4.785156 33.015625 13.472656l50.308594 49.265625c8.335937 8.164062 12.71875 19.082031 12.335937 30.742187-.378906 11.65625-5.464843 22.269532-14.3125 29.867188-14.535156 12.488281-36.203124 13.199218-51.527343 1.691406l-62.132813-46.671875c-4.503906-3.382813-7.0625-8.398437-7.445312-13.609375.03125-.859375.035156-1.71875.007812-2.578125.214844-3.253906 1.261719-6.496094 3.238282-9.382813l5.042968-7.351562 82.960938 57.710938c4.539062 3.15625 10.769531 2.035156 13.921875-2.496094 3.152343-4.535156 2.035156-10.769532-2.496094-13.921875l-36.375-25.304688v-12.214843c0-5.523438-4.480469-10-10-10-4.976563 0-9.09375 3.640624-9.859375 8.398437l-34.992188-24.339844c-2.1875-1.523437-4.894531-2.109375-7.511718-1.628906-2.621094.480469-4.941406 1.984375-6.449219 4.179687l-7.503906 10.949219-7.507813-10.949219c-1.507812-2.195312-3.828125-3.699218-6.449218-4.179687-2.621094-.480469-5.324219.105469-7.507813 1.628906l-34.992187 24.339844c-.769532-4.757813-4.886719-8.398437-9.863282-8.398437-5.519531 0-10 4.476562-10 10v12.214843l-36.375 25.304688c-4.53125 3.152343-5.648437 9.386719-2.496094 13.917969 3.152344 4.535156 9.386719 5.652343 13.921876 2.5l82.960937-57.714844 5.042969 7.355468c1.976562 2.882813 3.023437 6.121094 3.238281 9.375-.027344.863282-.023437 1.726563.007813 2.589844-.382813 5.210938-2.941407 10.222656-7.445313 13.605469l-62.132813 46.667969c-15.320312 11.511718-36.992187 10.796875-51.527343-1.683594zm-59.683594 172.078125c-4.605469-11.195313-4.46875-23.46875.386719-34.554687 4.855468-11.089844 13.78125-19.515626 25.132812-23.726563l100.8125-37.398437h128.996094l100.808594 37.398437c11.351562 4.210937 20.277344 12.636719 25.132812 23.726563 4.855469 11.085937 4.992188 23.359374.390625 34.558593-6.816406 16.578125-22.378906 26.8125-39.1875 27.417969h-2.933593c-4.726563-.144531-9.515626-1.042969-14.207032-2.789062l-89.960937-33.472657h13.355469c3.746093 0 7.175781-2.09375 8.890624-5.421875 1.714844-3.328125 1.425782-7.335937-.75-10.386718l-9.878906-13.847657 74.339844 21.40625c.925781.269531 1.855469.394531 2.773438.394531 4.34375 0 8.339843-2.851562 9.601562-7.234374 1.527344-5.308594-1.535156-10.847657-6.839844-12.378907l-112.742187-32.464843c-14.4375-6.4375-31.058594-7.675782-46.945313-2.703126l-76.609375 23.972657c-5.273437 1.648437-8.207031 7.261719-6.558593 12.53125 1.648437 5.269531 7.265624 8.203125 12.53125 6.558593l76.609374-23.976562c11.035157-3.453125 22.574219-2.625 32.621094 1.800781.363282.191407.742188.359375 1.128906.507813 7.023438 3.316406 13.257813 8.417968 18.003907 15.070312l4.40625 6.171875h-27.472657c-1.191406 0-2.371093.214844-3.488281.628907l-142.023437 52.84375c-4.707032 1.75-9.511719 2.648437-14.253906 2.789062h-2.847657c-16.824219-.59375-32.402343-10.824219-39.222656-27.421875zm190.828125-4.074219 84.648438 31.496094h-169.296876zm0 0" data-original="#000000" class="active-path" style="fill:#000000"/></g> </svg>
